<svg xmlns="http://www.w3.org/2000/svg" xmlns:xlink="http://www.w3.org/1999/xlink" width="174" height="57" viewBox="0 0 174 57">
  <defs>
    <clipPath id="clip-path">
      <rect id="Rectangle_33" data-name="Rectangle 33" width="116" height="29" transform="translate(0.408 0.296)"/>
    </clipPath>
  </defs>
  <g id="app_store" data-name="app store" transform="translate(-1109 -512.183)">
    <rect id="Rectangle_31" data-name="Rectangle 31" width="174" height="57" rx="15" transform="translate(1109 512.183)" fill="#ecf0f2"/>
    <g id="Group_62" data-name="Group 62" transform="translate(1137.592 525.887)">
      <g id="Group_63" data-name="Group 63" transform="translate(0 0)" clip-path="url(#clip-path)">
        <path id="Path_102" data-name="Path 102" d="M17.369,12.964A5.807,5.807,0,0,1,20.135,8.09,5.946,5.946,0,0,0,15.45,5.557c-1.971-.207-3.882,1.18-4.887,1.18-1.024,0-2.569-1.159-4.235-1.125a6.239,6.239,0,0,0-5.25,3.2c-2.27,3.93-.576,9.706,1.6,12.884C3.763,23.253,5.034,24.992,6.7,24.93c1.628-.067,2.236-1.038,4.2-1.038,1.947,0,2.518,1.038,4.215,1,1.748-.028,2.848-1.562,3.9-3.133A12.859,12.859,0,0,0,20.8,18.127a5.614,5.614,0,0,1-3.426-5.164" transform="translate(0 0.962)"/>
        <path id="Path_103" data-name="Path 103" d="M12.633,4.381a5.721,5.721,0,0,0,1.309-4.1,5.821,5.821,0,0,0-3.766,1.949A5.439,5.439,0,0,0,8.833,6.177a4.811,4.811,0,0,0,3.8-1.8" transform="translate(1.53 0.049)"/>
        <path id="Path_104" data-name="Path 104" d="M33.7,20.278H28.143l-1.335,3.939H24.455L29.718,9.641h2.445l5.262,14.576H35.032Zm-4.98-1.818h4.4l-2.172-6.394h-.06Z" transform="translate(4.25 1.675)"/>
        <path id="Path_105" data-name="Path 105" d="M46.67,18.336c0,3.3-1.768,5.424-4.435,5.424A3.6,3.6,0,0,1,38.891,21.9h-.05v5.263H36.66V13.023h2.112V14.79h.04A3.769,3.769,0,0,1,42.2,12.911c2.7,0,4.475,2.132,4.475,5.425m-2.242,0c0-2.152-1.112-3.566-2.809-3.566-1.667,0-2.788,1.444-2.788,3.566,0,2.141,1.121,3.575,2.788,3.575,1.7,0,2.809-1.4,2.809-3.575" transform="translate(6.372 2.244)"/>
        <path id="Path_106" data-name="Path 106" d="M56.635,18.336c0,3.3-1.768,5.424-4.435,5.424A3.6,3.6,0,0,1,48.856,21.9h-.05v5.263H46.625V13.023h2.112V14.79h.04a3.769,3.769,0,0,1,3.384-1.879c2.7,0,4.475,2.132,4.475,5.425m-2.242,0c0-2.152-1.112-3.566-2.809-3.566-1.667,0-2.788,1.444-2.788,3.566,0,2.141,1.121,3.575,2.788,3.575,1.7,0,2.809-1.4,2.809-3.575" transform="translate(8.104 2.244)"/>
        <path id="Path_107" data-name="Path 107" d="M62.07,20.192c.162,1.445,1.566,2.395,3.485,2.395,1.838,0,3.161-.95,3.161-2.253,0-1.132-.8-1.809-2.687-2.272l-1.889-.455c-2.677-.647-3.919-1.9-3.919-3.93,0-2.514,2.191-4.242,5.3-4.242,3.08,0,5.192,1.728,5.263,4.242h-2.2c-.133-1.454-1.335-2.332-3.092-2.332s-2.959.889-2.959,2.181c0,1.031.768,1.637,2.646,2.1l1.607.394c2.99.708,4.233,1.909,4.233,4.041,0,2.727-2.173,4.435-5.627,4.435-3.233,0-5.415-1.668-5.556-4.3Z" transform="translate(10.4 1.639)"/>
        <path id="Path_108" data-name="Path 108" d="M73.928,10.863v2.515H75.95v1.727H73.928v5.858c0,.911.4,1.335,1.294,1.335a6.692,6.692,0,0,0,.717-.05v1.717a5.966,5.966,0,0,1-1.211.1c-2.152,0-2.991-.808-2.991-2.869V15.105H70.191V13.378h1.546V10.863Z" transform="translate(12.199 1.888)"/>
        <path id="Path_109" data-name="Path 109" d="M76.094,18.339c0-3.344,1.968-5.445,5.04-5.445s5.041,2.1,5.041,5.445-1.951,5.445-5.041,5.445-5.04-2.093-5.04-5.445m7.859,0c0-2.294-1.052-3.647-2.818-3.647s-2.818,1.364-2.818,3.647c0,2.3,1.051,3.646,2.818,3.646s2.818-1.343,2.818-3.646" transform="translate(13.225 2.241)"/>
        <path id="Path_110" data-name="Path 110" d="M86.215,13.022h2.079V14.83h.05A2.537,2.537,0,0,1,90.9,12.91a3.3,3.3,0,0,1,.748.082v2.04a3.041,3.041,0,0,0-.98-.131,2.2,2.2,0,0,0-2.274,2.445v6.3h-2.18Z" transform="translate(14.984 2.244)"/>
        <path id="Path_111" data-name="Path 111" d="M100.831,20.531c-.293,1.93-2.17,3.254-4.575,3.254-3.091,0-5.011-2.072-5.011-5.395s1.93-5.5,4.921-5.5c2.939,0,4.788,2.02,4.788,5.242v.748H93.447v.131a2.769,2.769,0,0,0,2.859,3.011,2.4,2.4,0,0,0,2.454-1.5Zm-7.373-3.172H98.77a2.555,2.555,0,0,0-2.6-2.7,2.689,2.689,0,0,0-2.707,2.7" transform="translate(15.859 2.241)"/>
        <path id="Path_112" data-name="Path 112" d="M28.23.294c2.076,0,3.295,1.276,3.295,3.48,0,2.237-1.209,3.524-3.295,3.524H25.7v-7ZM26.787,6.307h1.321a2.2,2.2,0,0,0,2.31-2.519,2.209,2.209,0,0,0-2.31-2.5H26.787Z" transform="translate(4.467 0.051)"/>
        <path id="Path_113" data-name="Path 113" d="M31.709,4.413a2.5,2.5,0,1,1,4.985,0c0,1.713-.947,2.747-2.491,2.747a2.426,2.426,0,0,1-2.494-2.747m3.912,0c0-1.146-.514-1.816-1.418-1.816s-1.417.67-1.417,1.816S33.3,6.232,34.2,6.232s1.418-.669,1.418-1.819" transform="translate(5.511 0.29)"/>
        <path id="Path_114" data-name="Path 114" d="M42.471,7.043H41.389L40.3,3.151h-.082L39.126,7.043H38.054L36.6,1.758h1.058L38.6,5.791h.079l1.086-4.033h1l1.087,4.033h.082l.943-4.033h1.042Z" transform="translate(6.361 0.305)"/>
        <path id="Path_115" data-name="Path 115" d="M43.882,1.773h1v.839h.079a1.583,1.583,0,0,1,1.578-.941,1.719,1.719,0,0,1,1.829,1.966V7.059H47.328V3.9c0-.85-.37-1.271-1.141-1.271a1.212,1.212,0,0,0-1.262,1.339V7.059H43.882Z" transform="translate(7.627 0.29)"/>
        <rect id="Rectangle_32" data-name="Rectangle 32" width="1.044" height="7.349" transform="translate(57.66)"/>
        <path id="Path_116" data-name="Path 116" d="M51.246,4.413a2.5,2.5,0,1,1,4.986,0,2.5,2.5,0,1,1-4.986,0m3.912,0c0-1.146-.514-1.816-1.418-1.816s-1.417.67-1.417,1.816.511,1.819,1.417,1.819,1.418-.669,1.418-1.819" transform="translate(8.907 0.29)"/>
        <path id="Path_117" data-name="Path 117" d="M56.429,5.564c0-.951.709-1.5,1.966-1.578L59.827,3.9V3.447c0-.559-.369-.874-1.082-.874-.582,0-.986.215-1.1.589H56.633c.107-.909.961-1.492,2.16-1.492,1.325,0,2.073.661,2.073,1.777V7.058h-1V6.316h-.082a1.778,1.778,0,0,1-1.588.829,1.6,1.6,0,0,1-1.762-1.581m3.4-.452V4.67l-1.291.082c-.728.048-1.058.3-1.058.762s.413.754.98.754a1.247,1.247,0,0,0,1.369-1.156" transform="translate(9.808 0.29)"/>
        <path id="Path_118" data-name="Path 118" d="M61.377,4.7c0-1.67.858-2.728,2.194-2.728a1.741,1.741,0,0,1,1.621.927h.077V0h1.044V7.348h-1V6.513h-.083a1.835,1.835,0,0,1-1.66.923c-1.344,0-2.194-1.059-2.194-2.733m1.078,0c0,1.121.528,1.8,1.412,1.8s1.423-.684,1.423-1.791-.549-1.8-1.423-1.8-1.412.68-1.412,1.791" transform="translate(10.667 0)"/>
        <path id="Path_119" data-name="Path 119" d="M69.258,4.413a2.5,2.5,0,1,1,4.985,0c0,1.713-.947,2.747-2.491,2.747a2.426,2.426,0,0,1-2.494-2.747m3.912,0c0-1.146-.514-1.816-1.418-1.816s-1.417.67-1.417,1.816.511,1.819,1.417,1.819,1.418-.669,1.418-1.819" transform="translate(12.037 0.29)"/>
        <path id="Path_120" data-name="Path 120" d="M74.7,1.773h1v.839h.079a1.583,1.583,0,0,1,1.578-.941,1.719,1.719,0,0,1,1.829,1.966V7.059H78.144V3.9c0-.85-.37-1.271-1.141-1.271a1.212,1.212,0,0,0-1.262,1.339V7.059H74.7Z" transform="translate(12.983 0.29)"/>
        <path id="Path_121" data-name="Path 121" d="M83.823.637v1.34h1.146v.878H83.823V5.574c0,.553.228.8.748.8a3.549,3.549,0,0,0,.4-.025v.87a3.49,3.49,0,0,1-.568.053c-1.16,0-1.622-.408-1.622-1.427V2.855H81.94V1.977h.838V.637Z" transform="translate(14.241 0.11)"/>
        <path id="Path_122" data-name="Path 122" d="M85.733,0h1.034V2.912h.082a1.628,1.628,0,0,1,1.612-.946,1.742,1.742,0,0,1,1.821,1.971V7.349H89.237V4.194c0-.844-.393-1.272-1.13-1.272a1.235,1.235,0,0,0-1.33,1.34V7.349H85.733Z" transform="translate(14.901 0)"/>
        <path id="Path_123" data-name="Path 123" d="M95.491,5.631A2.145,2.145,0,0,1,93.2,7.161c-1.514,0-2.442-1.039-2.442-2.728s.946-2.762,2.437-2.762c1.471,0,2.358,1,2.358,2.665V4.7H91.821v.059a1.4,1.4,0,0,0,1.407,1.514,1.269,1.269,0,0,0,1.258-.641Zm-3.669-1.7h2.669a1.275,1.275,0,0,0-1.3-1.37,1.353,1.353,0,0,0-1.369,1.37" transform="translate(15.774 0.29)"/>
      </g>
    </g>
  </g>
</svg>
