<svg xmlns="http://www.w3.org/2000/svg" xmlns:xlink="http://www.w3.org/1999/xlink" width="213" height="70" viewBox="0 0 213 70">
  <defs>
    <clipPath id="clip-path">
      <rect id="Rectangle_33" data-name="Rectangle 33" width="142.994" height="36" fill="#fff"/>
    </clipPath>
  </defs>
  <g id="app_store" data-name="app store" transform="translate(-1109 -512)">
    <rect id="Rectangle_31" data-name="Rectangle 31" width="213" height="70" rx="20" transform="translate(1109 512)" fill="#4147d5"/>
    <g id="Group_62" data-name="Group 62" transform="translate(1144 529)">
      <g id="Group_63" data-name="Group 63" transform="translate(0 0)" clip-path="url(#clip-path)">
        <path id="Path_102" data-name="Path 102" d="M21.262,14.629a7.109,7.109,0,0,1,3.387-5.966,7.279,7.279,0,0,0-5.736-3.1c-2.413-.253-4.752,1.444-5.982,1.444-1.253,0-3.145-1.418-5.184-1.377a7.637,7.637,0,0,0-6.427,3.92C-1.46,14.36.614,21.431,3.275,25.321c1.332,1.9,2.888,4.032,4.926,3.956,1.993-.082,2.737-1.27,5.143-1.27,2.384,0,3.082,1.27,5.16,1.223,2.14-.034,3.486-1.913,4.772-3.835a15.741,15.741,0,0,0,2.181-4.444,6.872,6.872,0,0,1-4.194-6.321" transform="translate(0 2.418)" fill="#fff"/>
        <path id="Path_103" data-name="Path 103" d="M13.491,5.3a7,7,0,0,0,1.6-5.016,7.126,7.126,0,0,0-4.61,2.385A6.658,6.658,0,0,0,8.84,7.5a5.889,5.889,0,0,0,4.651-2.2" transform="translate(3.846 0.123)" fill="#fff"/>
        <path id="Path_104" data-name="Path 104" d="M35.771,22.662h-6.8l-1.634,4.822H24.455L30.9,9.641h2.993l6.442,17.843H37.4Zm-6.1-2.226h5.391L32.407,12.61h-.073Z" transform="translate(10.684 4.212)" fill="#fff"/>
        <path id="Path_105" data-name="Path 105" d="M48.914,19.552c0,4.042-2.164,6.64-5.429,6.64a4.41,4.41,0,0,1-4.094-2.276H39.33v6.443H36.66V13.048h2.585v2.164h.049a4.613,4.613,0,0,1,4.143-2.3c3.3,0,5.477,2.609,5.477,6.641m-2.744,0c0-2.634-1.361-4.365-3.438-4.365-2.04,0-3.413,1.767-3.413,4.365,0,2.621,1.372,4.377,3.413,4.377,2.078,0,3.438-1.719,3.438-4.377" transform="translate(16.017 5.64)" fill="#fff"/>
        <path id="Path_106" data-name="Path 106" d="M58.879,19.552c0,4.042-2.164,6.64-5.429,6.64a4.41,4.41,0,0,1-4.094-2.276h-.062v6.443h-2.67V13.048H49.21v2.164h.049a4.613,4.613,0,0,1,4.143-2.3c3.3,0,5.477,2.609,5.477,6.641m-2.744,0c0-2.634-1.361-4.365-3.438-4.365-2.04,0-3.413,1.767-3.413,4.365,0,2.621,1.372,4.377,3.413,4.377,2.078,0,3.438-1.719,3.438-4.377" transform="translate(20.37 5.64)" fill="#fff"/>
        <path id="Path_107" data-name="Path 107" d="M62.57,22.6c.2,1.769,1.917,2.931,4.266,2.931,2.25,0,3.87-1.162,3.87-2.757,0-1.385-.977-2.214-3.289-2.782L65.1,19.438c-3.278-.792-4.8-2.323-4.8-4.811,0-3.078,2.683-5.193,6.492-5.193,3.77,0,6.355,2.115,6.443,5.193h-2.7c-.162-1.78-1.634-2.855-3.785-2.855s-3.622,1.088-3.622,2.67c0,1.262.94,2,3.239,2.572l1.967.483c3.66.866,5.181,2.336,5.181,4.947,0,3.338-2.66,5.429-6.888,5.429-3.957,0-6.628-2.042-6.8-5.269Z" transform="translate(26.143 4.121)" fill="#fff"/>
        <path id="Path_108" data-name="Path 108" d="M74.766,10.863v3.079H77.24v2.114H74.766v7.172c0,1.115.5,1.634,1.583,1.634a8.191,8.191,0,0,0,.878-.062v2.1a7.3,7.3,0,0,1-1.483.124c-2.634,0-3.661-.989-3.661-3.512V16.056H70.191V13.942h1.892V10.863Z" transform="translate(30.666 4.746)" fill="#fff"/>
        <path id="Path_109" data-name="Path 109" d="M76.094,19.56c0-4.094,2.41-6.666,6.17-6.666s6.171,2.572,6.171,6.666-2.388,6.666-6.171,6.666-6.17-2.562-6.17-6.666m9.62,0c0-2.808-1.287-4.464-3.45-4.464s-3.45,1.67-3.45,4.464c0,2.819,1.286,4.463,3.45,4.463s3.45-1.644,3.45-4.463" transform="translate(33.245 5.633)" fill="#fff"/>
        <path id="Path_110" data-name="Path 110" d="M86.215,13.047H88.76v2.214h.062a3.106,3.106,0,0,1,3.13-2.351,4.045,4.045,0,0,1,.915.1v2.5a3.723,3.723,0,0,0-1.2-.161,2.691,2.691,0,0,0-2.783,2.993v7.716H86.215Z" transform="translate(37.667 5.64)" fill="#fff"/>
        <path id="Path_111" data-name="Path 111" d="M102.98,22.242c-.359,2.362-2.657,3.983-5.6,3.983-3.783,0-6.134-2.536-6.134-6.6s2.362-6.728,6.023-6.728c3.6,0,5.861,2.473,5.861,6.417v.915H93.941v.161a3.389,3.389,0,0,0,3.5,3.686,2.944,2.944,0,0,0,3-1.831ZM93.955,18.36h6.5a3.127,3.127,0,0,0-3.188-3.3,3.292,3.292,0,0,0-3.313,3.3" transform="translate(39.865 5.633)" fill="#fff"/>
        <path id="Path_112" data-name="Path 112" d="M28.8.294c2.542,0,4.033,1.562,4.033,4.26,0,2.739-1.48,4.314-4.033,4.314H25.7V.294ZM27.031,7.655h1.617c1.793,0,2.828-1.116,2.828-3.084,0-1.937-1.052-3.066-2.828-3.066H27.031Z" transform="translate(11.228 0.128)" fill="#fff"/>
        <path id="Path_113" data-name="Path 113" d="M31.709,5.028c0-2.086,1.165-3.357,3.053-3.357s3.049,1.27,3.049,3.357S36.652,8.39,34.762,8.39s-3.053-1.266-3.053-3.362m4.789,0c0-1.4-.629-2.223-1.736-2.223s-1.734.82-1.734,2.223.625,2.227,1.734,2.227S36.5,6.436,36.5,5.028" transform="translate(13.854 0.73)" fill="#fff"/>
        <path id="Path_114" data-name="Path 114" d="M43.788,8.228H42.463L41.125,3.463h-.1L39.693,8.228H38.381L36.6,1.758h1.295l1.16,4.937h.1l1.329-4.937H41.7l1.331,4.937h.1l1.154-4.937h1.276Z" transform="translate(15.989 0.768)" fill="#fff"/>
        <path id="Path_115" data-name="Path 115" d="M43.882,1.8h1.229V2.823h.1a1.938,1.938,0,0,1,1.931-1.152,2.1,2.1,0,0,1,2.239,2.407V8.266H48.1V4.4c0-1.04-.453-1.556-1.4-1.556a1.484,1.484,0,0,0-1.545,1.639V8.266H43.882Z" transform="translate(19.172 0.73)" fill="#fff"/>
        <rect id="Rectangle_32" data-name="Rectangle 32" width="1.277" height="8.996" transform="translate(70.583)" fill="#fff"/>
        <path id="Path_116" data-name="Path 116" d="M51.246,5.028c0-2.086,1.165-3.357,3.053-3.357s3.051,1.27,3.051,3.357S56.189,8.39,54.3,8.39s-3.053-1.266-3.053-3.362m4.789,0c0-1.4-.629-2.223-1.736-2.223s-1.734.82-1.734,2.223S53.19,7.255,54.3,7.255s1.736-.819,1.736-2.227" transform="translate(22.389 0.73)" fill="#fff"/>
        <path id="Path_117" data-name="Path 117" d="M56.429,6.436c0-1.164.868-1.836,2.407-1.931l1.753-.1V3.845c0-.684-.451-1.07-1.325-1.07-.713,0-1.207.263-1.348.721H56.679c.131-1.112,1.177-1.826,2.644-1.826,1.622,0,2.538.809,2.538,2.175v4.42H60.63V7.357h-.1a2.176,2.176,0,0,1-1.944,1.014,1.954,1.954,0,0,1-2.157-1.935m4.16-.553v-.54l-1.581.1c-.891.059-1.295.364-1.295.933s.506.922,1.2.922a1.526,1.526,0,0,0,1.675-1.415" transform="translate(24.654 0.729)" fill="#fff"/>
        <path id="Path_118" data-name="Path 118" d="M61.377,5.758c0-2.045,1.05-3.339,2.686-3.339a2.132,2.132,0,0,1,1.984,1.135h.095V0h1.277V8.995H66.2V7.973h-.1A2.246,2.246,0,0,1,64.063,9.1c-1.645,0-2.686-1.3-2.686-3.345m1.319,0c0,1.372.647,2.2,1.729,2.2s1.742-.838,1.742-2.193-.672-2.2-1.742-2.2S62.7,4.4,62.7,5.758" transform="translate(26.815 0)" fill="#fff"/>
        <path id="Path_119" data-name="Path 119" d="M69.258,5.028c0-2.086,1.165-3.357,3.053-3.357s3.049,1.27,3.049,3.357S74.2,8.39,72.311,8.39s-3.053-1.266-3.053-3.362m4.789,0c0-1.4-.629-2.223-1.736-2.223s-1.734.82-1.734,2.223.625,2.227,1.734,2.227,1.736-.819,1.736-2.227" transform="translate(30.259 0.73)" fill="#fff"/>
        <path id="Path_120" data-name="Path 120" d="M74.7,1.8h1.229V2.823h.1a1.938,1.938,0,0,1,1.931-1.152,2.1,2.1,0,0,1,2.239,2.407V8.266H78.917V4.4c0-1.04-.453-1.556-1.4-1.556a1.484,1.484,0,0,0-1.545,1.639V8.266H74.7Z" transform="translate(32.635 0.73)" fill="#fff"/>
        <path id="Path_121" data-name="Path 121" d="M84.245.637V2.278h1.4V3.353h-1.4V6.681c0,.677.279.974.915.974a4.345,4.345,0,0,0,.487-.03V8.689a4.273,4.273,0,0,1-.7.065c-1.42,0-1.986-.5-1.986-1.747V3.353H81.94V2.278h1.026V.637Z" transform="translate(35.799 0.278)" fill="#fff"/>
        <path id="Path_122" data-name="Path 122" d="M85.733,0H87V3.565h.1a1.993,1.993,0,0,1,1.973-1.158A2.132,2.132,0,0,1,91.3,4.819V9H90.022V5.134c0-1.033-.481-1.558-1.384-1.558A1.512,1.512,0,0,0,87.01,5.217V9H85.733Z" transform="translate(37.456 0)" fill="#fff"/>
        <path id="Path_123" data-name="Path 123" d="M96.551,6.519a2.626,2.626,0,0,1-2.8,1.872c-1.854,0-2.989-1.272-2.989-3.339s1.158-3.381,2.983-3.381c1.8,0,2.887,1.23,2.887,3.262v.445H92.059V5.45A1.709,1.709,0,0,0,93.782,7.3a1.553,1.553,0,0,0,1.54-.785ZM92.059,4.434h3.268a1.561,1.561,0,0,0-1.592-1.677,1.656,1.656,0,0,0-1.675,1.677" transform="translate(39.652 0.73)" fill="#fff"/>
      </g>
    </g>
  </g>
</svg>
