<svg xmlns="http://www.w3.org/2000/svg" xmlns:xlink="http://www.w3.org/1999/xlink" width="213" height="70" viewBox="0 0 213 70">
  <defs>
    <clipPath id="clip-path">
      <rect id="Rectangle_30" data-name="Rectangle 30" width="152.704" height="36" fill="none"/>
    </clipPath>
    <clipPath id="clip-path-2">
      <rect id="Rectangle_20" data-name="Rectangle 20" width="152.704" height="35.999" fill="#fff"/>
    </clipPath>
    <clipPath id="clip-path-3">
      <path id="Path_94" data-name="Path 94" d="M.61.8A2.637,2.637,0,0,0,0,2.648V31.8a2.64,2.64,0,0,0,.61,1.852l.1.095L17.039,17.417v-.385L.707.7Z" transform="translate(0 -0.701)" fill="none"/>
    </clipPath>
    <linearGradient id="linear-gradient" x1="0.259" y1="1.017" x2="0.668" y2="1.018" gradientUnits="objectBoundingBox">
      <stop offset="0" stop-color="#00a0ff"/>
      <stop offset="0.007" stop-color="#00a1ff"/>
      <stop offset="0.26" stop-color="#00beff"/>
      <stop offset="0.512" stop-color="#00d2ff"/>
      <stop offset="0.76" stop-color="#00dfff"/>
      <stop offset="1" stop-color="#00e3ff"/>
    </linearGradient>
    <clipPath id="clip-path-4">
      <path id="Path_95" data-name="Path 95" d="M12.926,14.4v.385l5.443,5.447.125-.07L24.942,16.5c1.843-1.047,1.843-2.76,0-3.807L18.494,9.029l-.124-.07Z" transform="translate(-12.926 -8.959)" fill="none"/>
    </clipPath>
    <linearGradient id="linear-gradient-2" x1="-1.229" y1="2.145" x2="-1.134" y2="2.145" gradientUnits="objectBoundingBox">
      <stop offset="0" stop-color="#ffe000"/>
      <stop offset="0.409" stop-color="#ffbd00"/>
      <stop offset="0.775" stop-color="orange"/>
      <stop offset="1" stop-color="#ff9c00"/>
    </linearGradient>
    <clipPath id="clip-path-5">
      <path id="Path_96" data-name="Path 96" d="M.463,29.664a2.143,2.143,0,0,0,2.739.08L22.459,18.8l-5.568-5.568Z" transform="translate(-0.463 -13.236)" fill="none"/>
    </clipPath>
    <linearGradient id="linear-gradient-3" x1="0.88" y1="0.88" x2="0.128" y2="0.862" gradientUnits="objectBoundingBox">
      <stop offset="0" stop-color="#ff3a44"/>
      <stop offset="1" stop-color="#c31162"/>
    </linearGradient>
    <clipPath id="clip-path-6">
      <path id="Path_97" data-name="Path 97" d="M.463.9,16.891,17.328l5.568-5.568L3.2.818A3.039,3.039,0,0,0,1.724.375,1.685,1.685,0,0,0,.463.9" transform="translate(-0.463 -0.375)" fill="none"/>
    </clipPath>
    <linearGradient id="linear-gradient-4" x1="0.079" y1="1.486" x2="0.126" y2="1.486" gradientUnits="objectBoundingBox">
      <stop offset="0" stop-color="#32a071"/>
      <stop offset="0.068" stop-color="#2da771"/>
      <stop offset="0.476" stop-color="#15cf74"/>
      <stop offset="0.801" stop-color="#06e775"/>
      <stop offset="1" stop-color="#00f076"/>
    </linearGradient>
    <clipPath id="clip-path-7">
      <rect id="Rectangle_29" data-name="Rectangle 29" width="152.704" height="35.999" fill="none"/>
    </clipPath>
    <clipPath id="clip-path-8">
      <rect id="Rectangle_25" data-name="Rectangle 25" width="21.996" height="11.507" fill="none"/>
    </clipPath>
    <clipPath id="clip-path-9">
      <rect id="Rectangle_26" data-name="Rectangle 26" width="0.708" height="2.045" fill="none"/>
    </clipPath>
    <clipPath id="clip-path-10">
      <rect id="Rectangle_27" data-name="Rectangle 27" width="7.954" height="5.567" fill="none"/>
    </clipPath>
    <clipPath id="clip-path-11">
      <rect id="Rectangle_28" data-name="Rectangle 28" width="30.437" height="16.952" fill="none"/>
    </clipPath>
  </defs>
  <g id="google_play" data-name="google play" transform="translate(-1342 -512)">
    <rect id="Rectangle_18" data-name="Rectangle 18" width="213" height="70" rx="20" transform="translate(1342 512)" fill="#4147d5"/>
    <g id="Group_61" data-name="Group 61" transform="translate(1372 529)">
      <g id="Mask_Group_60" data-name="Mask Group 60" clip-path="url(#clip-path)">
        <g id="Group_37" data-name="Group 37" transform="translate(0 0.001)">
          <g id="Group_36" data-name="Group 36" clip-path="url(#clip-path-2)">
            <path id="Path_87" data-name="Path 87" d="M39.462,3.856H35.388V5.07h2.858a2.3,2.3,0,0,1-.61,1.376,3.017,3.017,0,0,1-4.184,0,2.911,2.911,0,0,1-.871-2.186,2.926,2.926,0,0,1,2.94-3.028,2.525,2.525,0,0,1,2.064.891l.094.111.881-.883-.076-.092a3.41,3.41,0,0,0-1.287-.92A4.233,4.233,0,0,0,35.52,0a4.124,4.124,0,0,0-3,1.226,4.122,4.122,0,0,0-1.238,3.038A4.121,4.121,0,0,0,32.517,7.3a4.126,4.126,0,0,0,3,1.225,3.976,3.976,0,0,0,3-1.209A3.708,3.708,0,0,0,39.54,4.585a3.476,3.476,0,0,0-.058-.62Z" transform="translate(9.952 -0.001)" fill="#fff"/>
            <path id="Path_88" data-name="Path 88" d="M38.452,8.307h4.881V7.072h-3.6V4.827H42.98V3.613H39.732V1.37h3.6V.135H38.452Z" transform="translate(12.235 0.042)" fill="#fff"/>
            <path id="Path_89" data-name="Path 89" d="M42.759,1.37h2.209V8.307h1.28V1.37h2.209V.135h-5.7Z" transform="translate(13.605 0.042)" fill="#fff"/>
            <rect id="Rectangle_19" data-name="Rectangle 19" width="1.28" height="8.173" transform="translate(65.731 0.177)" fill="#fff"/>
            <path id="Path_90" data-name="Path 90" d="M51.608,1.37h2.209V8.307H55.1V1.37h2.209V.135h-5.7Z" transform="translate(16.421 0.042)" fill="#fff"/>
            <path id="Path_91" data-name="Path 91" d="M62.45,0a4.025,4.025,0,0,0-2.994,1.239,4.192,4.192,0,0,0-1.2,3.025,4.191,4.191,0,0,0,1.2,3.024,4.239,4.239,0,0,0,5.987,0,4.191,4.191,0,0,0,1.2-3.024,4.19,4.19,0,0,0-1.207-3.02A4.025,4.025,0,0,0,62.45,0m0,7.291a2.792,2.792,0,0,1-2.055-.85,2.984,2.984,0,0,1-.84-2.176,2.985,2.985,0,0,1,.84-2.178,2.909,2.909,0,0,1,4.11,0,2.981,2.981,0,0,1,.841,2.178A2.98,2.98,0,0,1,64.5,6.441a2.787,2.787,0,0,1-2.055.85" transform="translate(18.535 -0.001)" fill="#fff"/>
            <path id="Path_92" data-name="Path 92" d="M70.584.134V4.9l.03,1.113L66.944.134H65.5V8.307h1.277V3.245l-.03-1.111,3.808,6.111.04.062h1.265V.134Z" transform="translate(20.842 0.042)" fill="#fff"/>
            <path id="Path_93" data-name="Path 93" d="M66.784,16.484a5.606,5.606,0,1,0,5.629,5.606,5.526,5.526,0,0,0-5.629-5.606m0,9a3.242,3.242,0,0,1-3.164-3.4,3.172,3.172,0,1,1,6.329,0,3.243,3.243,0,0,1-3.165,3.4m-12.276-9a5.606,5.606,0,1,0,5.627,5.606,5.526,5.526,0,0,0-5.627-5.606m0,9a3.243,3.243,0,0,1-3.165-3.4,3.172,3.172,0,1,1,6.329,0,3.242,3.242,0,0,1-3.164,3.4M39.9,18.2v2.379H45.6a4.956,4.956,0,0,1-1.3,2.994,5.822,5.822,0,0,1-4.4,1.741,6.328,6.328,0,0,1,0-12.656,6.063,6.063,0,0,1,4.289,1.7l1.678-1.677a8.3,8.3,0,0,0-5.967-2.4,8.829,8.829,0,0,0-8.834,8.707A8.83,8.83,0,0,0,39.9,27.7a7.962,7.962,0,0,0,6.074-2.443,7.857,7.857,0,0,0,2.059-5.564A7.821,7.821,0,0,0,47.91,18.2Zm59.724,1.848a5.209,5.209,0,0,0-4.8-3.567,5.327,5.327,0,0,0-5.287,5.606A5.486,5.486,0,0,0,95.1,27.7a5.576,5.576,0,0,0,4.672-2.485l-1.911-1.275a3.2,3.2,0,0,1-2.76,1.55,2.851,2.851,0,0,1-2.718-1.7l7.5-3.1ZM91.983,21.92a3.073,3.073,0,0,1,2.93-3.27,2.171,2.171,0,0,1,2.081,1.189Zm-6.1,5.436h2.464V10.876H85.888Zm-4.035-9.62h-.084a3.889,3.889,0,0,0-2.953-1.252,5.611,5.611,0,0,0,0,11.212,3.822,3.822,0,0,0,2.953-1.275h.084v.807c0,2.146-1.147,3.291-2.995,3.291a3.1,3.1,0,0,1-2.824-2l-2.146.892a5.344,5.344,0,0,0,4.97,3.313c2.888,0,5.331-1.7,5.331-5.84V16.823H81.853Zm-2.825,7.751a3.216,3.216,0,0,1-3.121-3.376,3.243,3.243,0,0,1,3.121-3.419,3.16,3.16,0,0,1,2.995,3.419,3.133,3.133,0,0,1-2.995,3.376m32.138-14.609h-5.894V27.356h2.46V21.113h3.434a5.222,5.222,0,0,0,5.406-5.118,5.22,5.22,0,0,0-5.406-5.117m.065,7.942h-3.5V13.171h3.5a2.825,2.825,0,1,1,0,5.648m15.2-2.367a4.619,4.619,0,0,0-4.388,2.523l2.183.912a2.331,2.331,0,0,1,2.248-1.209,2.37,2.37,0,0,1,2.588,2.12v.17a5.447,5.447,0,0,0-2.566-.635c-2.353,0-4.748,1.293-4.748,3.709a3.807,3.807,0,0,0,4.092,3.626,3.468,3.468,0,0,0,3.137-1.612h.086v1.272h2.374V21.011c0-2.925-2.184-4.558-5-4.558m-.3,9.032c-.805,0-1.93-.4-1.93-1.4,0-1.272,1.4-1.76,2.609-1.76a4.387,4.387,0,0,1,2.247.552,2.982,2.982,0,0,1-2.926,2.607m13.95-8.671-2.82,7.145h-.086l-2.925-7.145H131.6l4.39,9.985-2.5,5.555h2.565l6.764-15.54ZM117.93,27.356h2.46V10.878h-2.46Z" transform="translate(9.885 3.271)" fill="#fff"/>
          </g>
        </g>
        <g id="Group_39" data-name="Group 39" transform="translate(0 0.924)">
          <g id="Group_38" data-name="Group 38" clip-path="url(#clip-path-3)">
            <rect id="Rectangle_21" data-name="Rectangle 21" width="35.416" height="35.416" transform="translate(32.709 21.004) rotate(150)" fill="url(#linear-gradient)"/>
          </g>
        </g>
        <g id="Group_41" data-name="Group 41" transform="translate(17.039 11.81)">
          <g id="Group_40" data-name="Group 40" clip-path="url(#clip-path-4)">
            <rect id="Rectangle_22" data-name="Rectangle 22" width="13.859" height="11.277" transform="translate(0 -0.001)" fill="url(#linear-gradient-2)"/>
          </g>
        </g>
        <g id="Group_43" data-name="Group 43" transform="translate(0.61 17.447)">
          <g id="Group_42" data-name="Group 42" clip-path="url(#clip-path-5)">
            <rect id="Rectangle_23" data-name="Rectangle 23" width="27.681" height="27.681" transform="translate(-8.575 8.575) rotate(-45)" fill="url(#linear-gradient-3)"/>
          </g>
        </g>
        <g id="Group_45" data-name="Group 45" transform="translate(0.61 0.494)">
          <g id="Group_44" data-name="Group 44" clip-path="url(#clip-path-6)">
            <rect id="Rectangle_24" data-name="Rectangle 24" width="27.541" height="27.541" transform="translate(-8.477 8.476) rotate(-45)" fill="url(#linear-gradient-4)"/>
          </g>
        </g>
        <g id="Group_59" data-name="Group 59" transform="translate(0 0.001)">
          <g id="Group_58" data-name="Group 58" clip-path="url(#clip-path-7)">
            <g id="Group_48" data-name="Group 48" transform="translate(0.61 22.891)" opacity="0.2" style="isolation: isolate">
              <g id="Group_47" data-name="Group 47">
                <g id="Group_46" data-name="Group 46" clip-path="url(#clip-path-8)">
                  <path id="Path_98" data-name="Path 98" d="M22.335,17.366,3.2,28.237a2.195,2.195,0,0,1-2.642.014l-.1.1.1.095h0A2.195,2.195,0,0,0,3.2,28.429L22.458,17.489Z" transform="translate(-0.463 -17.366)"/>
                </g>
              </g>
            </g>
            <g id="Group_51" data-name="Group 51" transform="translate(0 31.83)" opacity="0.12" style="isolation: isolate">
              <g id="Group_50" data-name="Group 50">
                <g id="Group_49" data-name="Group 49" clip-path="url(#clip-path-9)">
                  <path id="Path_99" data-name="Path 99" d="M.61,26A2.64,2.64,0,0,1,0,24.148v.192a2.64,2.64,0,0,0,.61,1.852l.1-.1Z" transform="translate(0 -24.148)"/>
                </g>
              </g>
            </g>
            <g id="Group_54" data-name="Group 54" transform="translate(22.483 17.446)" opacity="0.12" style="isolation: isolate">
              <g id="Group_53" data-name="Group 53">
                <g id="Group_52" data-name="Group 52" clip-path="url(#clip-path-10)">
                  <path id="Path_100" data-name="Path 100" d="M23.628,14.946,17.056,18.68l.123.123,6.45-3.665a2.311,2.311,0,0,0,1.381-1.9,2.453,2.453,0,0,1-1.381,1.71" transform="translate(-17.056 -13.236)"/>
                </g>
              </g>
            </g>
            <g id="Group_57" data-name="Group 57" transform="translate(0 0.494)" opacity="0.25" style="isolation: isolate">
              <g id="Group_56" data-name="Group 56">
                <g id="Group_55" data-name="Group 55" clip-path="url(#clip-path-11)">
                  <path id="Path_101" data-name="Path 101" d="M3.349,1.012,29.055,15.617a2.455,2.455,0,0,1,1.383,1.711,2.315,2.315,0,0,0-1.383-1.9L3.349.819C1.507-.228,0,.641,0,2.752v.192C0,.835,1.507-.035,3.349,1.012" transform="translate(0 -0.375)" fill="#fff"/>
                </g>
              </g>
            </g>
          </g>
        </g>
      </g>
    </g>
  </g>
</svg>
